<svg xmlns="http://www.w3.org/2000/svg" viewBox="0 0 500 500"><g id="freepik--background-complete--inject-7"><path d="M410.91,275.5l13.35-.28,6.58-.11c2.19-.05,4.36,0,6.55-.06l-.45.45-.05-11.19.5.5-13.24-.07c-4.42,0-8.83-.11-13.24-.16l.27-.27c0,1.83-.09,3.67-.13,5.53Zm0,0-.15-5.54c0-1.87-.11-3.75-.13-5.65V264h.28c4.41,0,8.82-.15,13.24-.16l13.24-.06h.5v.5l-.06,11.19V276h-.44c-2.24,0-4.47,0-6.7-.05l-6.66-.11Z" style="fill:#ebebeb"></path><path d="M425.68,289.61l13.35-.28,6.58-.11c2.19-.05,4.37,0,6.55-.06l-.45.45,0-11.19.5.5-13.24-.07c-4.42,0-8.83-.11-13.24-.16l.27-.27c0,1.83-.09,3.67-.13,5.53Zm0,0-.14-5.54c-.05-1.87-.12-3.75-.14-5.65v-.27h.28c4.41-.05,8.82-.15,13.24-.16l13.24-.06h.5v.5l-.06,11.19v.45h-.44c-2.23,0-4.47,0-6.7-.05l-6.66-.11Z" style="fill:#ebebeb"></path><rect x="396.08" y="278.42" width="26.48" height="11.19" transform="translate(818.64 568.02) rotate(-180)" style="fill:#ebebeb"></rect><path d="M47.84,366.85l13.36-.28,6.58-.11c2.18,0,4.36,0,6.54-.06l-.44.45-.06-11.19.5.5-13.24-.07c-4.41,0-8.82-.11-13.24-.16l.27-.27c0,1.83-.08,3.67-.13,5.53Zm0,0-.14-5.54c-.05-1.87-.11-3.75-.13-5.65v-.27h.27c4.42-.05,8.83-.15,13.24-.16l13.24-.06h.5v.5l0,11.19v.45h-.45c-2.23,0-4.47,0-6.69-.05L61,367.13Z" style="fill:#ebebeb"></path><rect x="62.61" y="369.77" width="26.48" height="11.19" transform="translate(151.71 750.72) rotate(-180)" style="fill:#ebebeb"></rect><path d="M116.45,157.86l13.36-.28,6.58-.11c2.18-.05,4.36,0,6.54-.05l-.44.44-.06-11.19.5.5-13.24-.06c-4.41,0-8.83-.11-13.24-.17l.27-.27c0,1.83-.08,3.68-.13,5.54Zm0,0-.14-5.53c0-1.87-.11-3.76-.13-5.66v-.27h.27c4.41-.05,8.83-.16,13.24-.16l13.24-.07h.5v.5l-.05,11.19v.45h-.44c-2.23,0-4.47,0-6.69-.06l-6.66-.11Z" style="fill:#ebebeb"></path><rect x="62.49" y="49.95" width="26.48" height="11.19" transform="translate(151.45 111.09) rotate(-180)" style="fill:#ebebeb"></rect><path d="M47.72,75.25,61.07,75l6.58-.11c2.19,0,4.36,0,6.55,0l-.45.44,0-11.19.5.5L61,64.5c-4.42,0-8.83-.11-13.24-.17l.27-.27c0,1.83-.09,3.67-.13,5.54Zm0,0-.15-5.53c0-1.87-.11-3.76-.13-5.66v-.27h.28c4.41,0,8.82-.16,13.24-.17l13.24-.06h.5v.5l-.06,11.19v.45H74.2c-2.24,0-4.47,0-6.7-.06l-6.66-.11Z" style="fill:#ebebeb"></path><path d="M410.91,61.14l13.35-.28,6.58-.11c2.19,0,4.36,0,6.55,0l-.45.44L436.89,50l.5.5-13.24-.06c-4.42,0-8.83-.11-13.24-.17l.27-.27c0,1.83-.09,3.67-.13,5.54Zm0,0-.15-5.53c0-1.87-.11-3.76-.13-5.66v-.27h.28c4.41,0,8.82-.16,13.24-.17l13.24-.06h.5V50l-.06,11.19v.45h-.44c-2.24,0-4.47,0-6.7-.06L424,61.42Z" style="fill:#ebebeb"></path><rect x="369.05" y="189.88" width="26.48" height="11.19" transform="translate(764.58 390.95) rotate(-180)" style="fill:#ebebeb"></rect><path d="M87.23,119.4a3.16,3.16,0,0,1,3.3,0l.85.49c.29.15.58.3.88.44a3.16,3.16,0,0,1,1.84,2.73l.12,4.06,13.24-.41-.13-4.06a3.17,3.17,0,0,1,1.66-2.86,18,18,0,0,0,1.68-1,3.15,3.15,0,0,1,3.29-.21l3.57,1.91,6.26-11.67-3.57-1.92a3.14,3.14,0,0,1-1.65-2.85,16.15,16.15,0,0,0-.06-2,3.13,3.13,0,0,1,1.46-3L123.42,97l-7-11.25L113,87.86a3.14,3.14,0,0,1-3.29,0c-.27-.17-.56-.33-.84-.48s-.58-.31-.88-.44a3.16,3.16,0,0,1-1.84-2.74L106,80.11l-13.24.41.13,4a3.13,3.13,0,0,1-1.66,2.86,18.07,18.07,0,0,0-1.68,1,3.13,3.13,0,0,1-3.29.21l-3.57-1.91L76.43,98.44,80,100.36a3.12,3.12,0,0,1,1.64,2.85,18.53,18.53,0,0,0,.07,2,3.14,3.14,0,0,1-1.46,3l-3.45,2.14,7,11.25Zm3.31-20.9A10.85,10.85,0,1,1,95,113.18,10.86,10.86,0,0,1,90.54,98.5Z" style="fill:#ebebeb"></path><path d="M434,255.54a2.2,2.2,0,0,1,2.05-1.08h1.37a2.19,2.19,0,0,1,2,1.07l1.42,2.47,8-4.64-1.42-2.46a2.19,2.19,0,0,1,.08-2.31q.38-.59.69-1.2a2.21,2.21,0,0,1,2-1.22h2.84v-9.28h-2.84a2.2,2.2,0,0,1-2-1.21,11.7,11.7,0,0,0-.69-1.2,2.19,2.19,0,0,1-.08-2.31l1.42-2.47-8-4.63-1.43,2.47a2.19,2.19,0,0,1-2,1.08c-.23,0-.46,0-.69,0s-.45,0-.68,0a2.23,2.23,0,0,1-2.05-1.08l-1.42-2.47-8,4.63,1.42,2.46a2.19,2.19,0,0,1-.08,2.31q-.37.59-.69,1.2a2.2,2.2,0,0,1-2,1.22h-2.84v9.28h2.84a2.21,2.21,0,0,1,2,1.22,11.7,11.7,0,0,0,.69,1.2,2.19,2.19,0,0,1,.08,2.31l-1.42,2.46,8,4.64Zm-4.87-14a7.6,7.6,0,1,1,7.6,7.59A7.61,7.61,0,0,1,429.14,241.54Z" style="fill:#ebebeb"></path><path d="M49.38,137.67a2.19,2.19,0,0,1,1.08,2.05c0,.22,0,.45,0,.68s0,.46,0,.69a2.19,2.19,0,0,1-1.07,2l-2.47,1.42,4.64,8L54,151.16a2.21,2.21,0,0,1,2.31.08c.39.25.79.49,1.2.7a2.19,2.19,0,0,1,1.22,1.95v2.84H68v-2.84a2.18,2.18,0,0,1,1.21-1.95,11.77,11.77,0,0,0,1.2-.7,2.21,2.21,0,0,1,2.31-.08l2.47,1.42,4.63-8-2.47-1.43a2.22,2.22,0,0,1-1.08-2c0-.23,0-.45,0-.68s0-.46,0-.68a2.22,2.22,0,0,1,1.08-2.05l2.47-1.42-4.63-8-2.46,1.42a2.19,2.19,0,0,1-2.31-.08q-.58-.37-1.2-.69a2.2,2.2,0,0,1-1.22-2v-2.84H58.75v2.84a2.21,2.21,0,0,1-1.22,2,11.7,11.7,0,0,0-1.2.69,2.21,2.21,0,0,1-2.32.08l-2.45-1.42-4.64,8Zm14-4.87a7.6,7.6,0,1,1-7.59,7.6A7.61,7.61,0,0,1,63.38,132.8Z" style="fill:#ebebeb"></path></g><g id="freepik--Plant--inject-7"><path d="M396.16,351.23c-7.4-15.21-20.35-23-35-18.71s-16.86,24.67-6,29.81,21.79-9.86,27.55-12.95S396.16,351.23,396.16,351.23Z" style="fill:#FFC727"></path><path d="M403.33,391.73c0-1.83-.11-3.67-.18-5.5-.13-3.66-.25-7.32-.38-11-.25-6.69-1-13.27-3.75-19.44a30.11,30.11,0,0,0-11.74-13.53,24.74,24.74,0,0,0-6.17-2.67,14.4,14.4,0,0,0-7.21-4,29.46,29.46,0,0,0-10.26-.26c-.13,0-.12.21,0,.19a24.91,24.91,0,0,1,9.72.69,21.15,21.15,0,0,1,3.91,1.53,18.76,18.76,0,0,1,2.26,1.43,21,21,0,0,0-8.92.09,19.62,19.62,0,0,0-3.09,1,9.63,9.63,0,0,0-2.44-.21,15.34,15.34,0,0,0-3.16.45,23.75,23.75,0,0,0-6,2.63c-.11.06,0,.22.1.16a22.68,22.68,0,0,1,5.86-2.21,20.22,20.22,0,0,1,3-.44,15.69,15.69,0,0,1,1.68,0,19.37,19.37,0,0,0-9.44,9.41c-.05.11.12.21.17.09a17.78,17.78,0,0,1,12-9.64c.32-.08.65-.12,1-.19-.11.47-.09,1-.15,1.47-.1.74-.22,1.48-.37,2.21a38.06,38.06,0,0,1-1.19,4.46,35.14,35.14,0,0,1-1.77,4.31,20.1,20.1,0,0,1-2.47,4.17.1.1,0,1,0,.16.11c.87-1.37,1.89-2.64,2.69-4.06a29.77,29.77,0,0,0,2-4.25,27.89,27.89,0,0,0,1.3-4.56c.17-.82.29-1.65.39-2.48a5.88,5.88,0,0,0,.09-1.51,20,20,0,0,1,5.18-.1c-.64,3.63-1.34,7.41-3.37,10.56-.07.11.11.21.17.09a42,42,0,0,0,2.5-5.19,19.66,19.66,0,0,0,1.26-5.4,23.93,23.93,0,0,1,8.57,2.87,28.36,28.36,0,0,1,11.41,12.48,47,47,0,0,1,4.23,17.9c.48,7.77.58,15.6,1.36,23.35.05.51.85.68,1,.1A28.21,28.21,0,0,0,403.33,391.73Z" style="fill:#263238"></path><path d="M386.22,341.05a8.6,8.6,0,0,0-1.68-1.56c-.61-.5-1.23-1-1.88-1.42a14.26,14.26,0,0,0-4.2-2c-.12,0-.17.17,0,.19a11.26,11.26,0,0,1,4.15,2c.62.46,1.21.94,1.79,1.45a10.54,10.54,0,0,0,1.7,1.44C386.16,341.29,386.3,341.16,386.22,341.05Z" style="fill:#263238"></path><path d="M362.6,346.56a46,46,0,0,0-3.4,4.49,27.65,27.65,0,0,0-2.52,5c0,.05.06.08.09,0a60.21,60.21,0,0,1,6-9.4C362.82,346.6,362.68,346.47,362.6,346.56Z" style="fill:#263238"></path><path d="M378.52,345.06a11,11,0,0,1-.83,2.75,19.08,19.08,0,0,1-1.41,2.44c0,.05,0,.1.08.06a9.87,9.87,0,0,0,2.35-5.21C378.73,345,378.54,344.93,378.52,345.06Z" style="fill:#263238"></path><path d="M402.3,351.61s10.48-13.18,30.7-8.51c19.23,4.44,28.1,39.7,8.68,43.91s-16-28.4-23.09-33.94C413.4,349,405.93,349.88,402.3,351.61Z" style="fill:#FFC727"></path><path d="M448.63,362.36a40.43,40.43,0,0,0-4.17-3.2,18.45,18.45,0,0,0-4.44-2.22,27.78,27.78,0,0,0-2.64-3.39,26.62,26.62,0,0,0-6.11-4.87l.6,0a31.25,31.25,0,0,1,3.21,0,18,18,0,0,1,6.25,1.55c.11,0,.19-.13.08-.17a28.33,28.33,0,0,0-6.23-1.88,17.67,17.67,0,0,0-3.16-.27,16,16,0,0,0-1.7.1l-.33,0a27.15,27.15,0,0,0-5.83-2.14l.57-.16a30,30,0,0,1,3-.49,23.65,23.65,0,0,1,6.06.09.1.1,0,0,0,0-.19,39.07,39.07,0,0,0-6.12-.24,25.36,25.36,0,0,0-5.09.66,26.57,26.57,0,0,0-3.68-.42c-7.06-.3-14.75,2.33-19.09,8.13s-5.19,13.54-6,20.54a155.45,155.45,0,0,0-.77,29.41c0,.57.86.47.87-.08.27-8.31.56-16.63,1.36-24.91.37-3.84.77-7.69,1.41-11.49a34.24,34.24,0,0,1,2.79-9.46,17.28,17.28,0,0,1,6.83-7.34,23,23,0,0,1,9.67-3,25.85,25.85,0,0,1,9.07.85,6,6,0,0,0-.05,1.79,10.45,10.45,0,0,0,.45,2.21,11.23,11.23,0,0,0,.84,2c.38.69.85,1.31,1.27,2,.06.1.23,0,.15-.11a9.24,9.24,0,0,1-1.57-4,17.8,17.8,0,0,1-.24-2.06c0-.52,0-1.05,0-1.57a26.88,26.88,0,0,1,8.83,4.66c.49.4,1,.81,1.43,1.24a10.07,10.07,0,0,0-1.72,2.11,21,21,0,0,0-1.8,3.2,27.63,27.63,0,0,0-1.87,7c0,.12.18.16.19,0a20.38,20.38,0,0,1,2.31-6.66,27.21,27.21,0,0,1,1.79-3c.34-.48.69-1,1.06-1.43.2-.25.42-.51.6-.78a27.92,27.92,0,0,1,5.74,8.08l0,0A13.52,13.52,0,0,0,440.1,366a31.09,31.09,0,0,0-1.89,4,68.89,68.89,0,0,0-2.42,8.24c0,.12.17.16.19,0a35.11,35.11,0,0,1,2.87-8.13c.61-1.26,1.25-2.51,1.92-3.74a36.47,36.47,0,0,0,1.9-3.54,26.08,26.08,0,0,1,2.31,9.37c0,.12.2.11.19,0a32.7,32.7,0,0,0-4.54-14.38c1.24.53,2.48,1,3.67,1.68a20.54,20.54,0,0,1,4.2,3C448.59,362.59,448.72,362.44,448.63,362.36Z" style="fill:#263238"></path><path d="M433.79,363.1c-.6,2-1.37,3.94-1.92,6A23,23,0,0,0,431,375c0,.06.09.06.1,0A58.09,58.09,0,0,1,434,363.16.1.1,0,1,0,433.79,363.1Z" style="fill:#263238"></path><path d="M446.61,358.15a11.19,11.19,0,0,0-2.68-1.91,19,19,0,0,0-3.1-1.1c-.12,0-.16.16,0,.19a11.64,11.64,0,0,1,3,1.23,22.3,22.3,0,0,1,2.75,1.69A.06.06,0,0,0,446.61,358.15Z" style="fill:#263238"></path><path d="M412.26,334s1.93-23.66,19.52-31.33c14.69-6.4,23.1,10.1,12.72,20.21C436.1,331.06,422.63,327.37,412.26,334Z" style="fill:#FFC727"></path><path d="M441.25,307.26a74.69,74.69,0,0,0-7.83,3.71,58.59,58.59,0,0,0-6.07,4c.29-.6.54-1.22.84-1.81.46-.91.95-1.81,1.49-2.67a24.9,24.9,0,0,1,3.88-4.91c.09-.08-.06-.22-.14-.13a37.6,37.6,0,0,0-4.08,4.75,28.37,28.37,0,0,0-1.67,2.67,11,11,0,0,0-1.19,2.73l-.19.14a57.77,57.77,0,0,0-8.4,8.22c.05-.23.09-.46.16-.68.33-1.15.68-2.3,1.06-3.44a29.78,29.78,0,0,1,3.18-6.9c.07-.1-.1-.2-.17-.09a55.54,55.54,0,0,0-3.68,6.73,25.44,25.44,0,0,0-1.22,3.5,15.07,15.07,0,0,0-.57,2.38c-.77,1-1.52,1.95-2.23,3-7.55,10.75-11.34,23.75-12.25,36.77a113.18,113.18,0,0,0-.2,11.65,72.78,72.78,0,0,0,1,11.7c.05.25.43.17.43-.07-.09-3.42-.44-6.82-.51-10.24a100.77,100.77,0,0,1,.33-10.28,95.19,95.19,0,0,1,3.84-20.13A72.14,72.14,0,0,1,416,328.92c.74-.15,1.48-.35,2.21-.54s1.76-.45,2.63-.69a26.38,26.38,0,0,0,4.9-1.8.09.09,0,1,0-.1-.16,15.85,15.85,0,0,1-5,1.71c-1.38.28-2.81.45-4.19.77,1.28-1.86,2.64-3.66,4.09-5.38a30.66,30.66,0,0,0,10-.74,41.06,41.06,0,0,0,5.12-1.6c1.77-.68,3.43-1.55,5.17-2.28a.09.09,0,1,0-.08-.17,29.37,29.37,0,0,1-10.14,3.32,61.67,61.67,0,0,1-9.49.78c1.25-1.43,2.54-2.83,3.92-4.14,4.62-4.4,10.11-8.44,16.19-10.55C441.42,307.41,441.36,307.22,441.25,307.26Z" style="fill:#263238"></path><path d="M426.93,307.34a26.19,26.19,0,0,0-2.16,3.15,17.42,17.42,0,0,0-1.55,3.67s0,.07.07,0c.59-1.16,1.08-2.37,1.68-3.52a17.49,17.49,0,0,1,2.1-3.2C427.15,307.37,427,307.24,426.93,307.34Z" style="fill:#263238"></path><path d="M443.29,315.21a17.56,17.56,0,0,1-3.61,1.51,33.71,33.71,0,0,1-3.67,1c-.06,0-.05.11,0,.1a17.75,17.75,0,0,0,3.81-.83,33.37,33.37,0,0,0,3.56-1.6C443.5,315.32,443.4,315.15,443.29,315.21Z" style="fill:#263238"></path><path d="M398.58,329.76c-.11,1-2.66-8.6-17.54-17.13-13.5-7.75-29.63-27.91-16.38-40.65C375.35,261.7,403.52,284.11,398.58,329.76Z" style="fill:#FFC727"></path><path d="M408.82,384.87A262.79,262.79,0,0,0,406.46,355a134.44,134.44,0,0,0-6.29-26.77c-1.1-3.13-2.37-6.2-3.74-9.23a21.93,21.93,0,0,0-.06-3.54c-.07-1.52-.21-3-.35-4.54s-.29-3-.47-4.53-.5-3-.56-4.51a.1.1,0,1,0-.19,0,32.06,32.06,0,0,1,.53,4.79q.18,2.19.24,4.38c.05,1.47,0,2.93,0,4.4,0,.52,0,1.08-.05,1.65-1.39-3-2.89-5.87-4.52-8.7,1-6.17-.3-12.62-1.56-18.65,0-.12-.21-.06-.18.06a52.81,52.81,0,0,1,1,9.56c.06,2.53-.06,5.06-.07,7.59-.36-.6-.71-1.21-1.08-1.81-1.93-3.15-4-6.24-6.18-9.23a14.36,14.36,0,0,0-.14-4.39,34.46,34.46,0,0,0-1.08-4.81c-.48-1.57-1-3.12-1.65-4.64s-1.5-3.05-2.12-4.61c-.06-.14-.25,0-.18.07a22.2,22.2,0,0,1,1.86,4.67,40.94,40.94,0,0,1,1.22,4.63c.32,1.56.57,3.13.79,4.72.15,1,.24,2.13.42,3.18a114.66,114.66,0,0,0-10.41-12.12c-.09-.09-.22.05-.14.14a137.25,137.25,0,0,1,15.13,20.58l.47.82c-.82-.51-1.76-.92-2.53-1.35l-4.33-2.38-4.22-2.3c-.72-.4-1.43-.82-2.17-1.2a17.15,17.15,0,0,1-2.52-1.39.09.09,0,1,0-.11.15c1.43.79,2.7,2,4.08,2.84s2.8,1.74,4.25,2.55c2.64,1.47,5.51,2.53,8.12,4.06q2.7,4.74,5,9.71c-1.58-1-3.19-2-4.83-2.9-1.05-.59-2.11-1.17-3.18-1.73a16.06,16.06,0,0,1-3-1.81.1.1,0,0,0-.13.14,28,28,0,0,0,5.72,4c1.91,1.12,3.84,2.2,5.83,3.17q2.38,5.24,4.3,10.65c6.26,17.73,8.56,36.55,9.66,55.24.33,5.57.5,11.14.57,16.72s-.23,11.14-.22,16.71c0,.16.27.2.3,0,.67-4.94.78-10,1-14.94S408.93,389.94,408.82,384.87Z" style="fill:#263238"></path><path d="M381.79,304.61a72,72,0,0,1-7.9-4.08,86.49,86.49,0,0,1-7.51-4.77s-.08,0-.05.07a64.2,64.2,0,0,0,7.21,5,72.7,72.7,0,0,0,8.16,3.91C381.82,304.83,381.91,304.66,381.79,304.61Z" style="fill:#263238"></path><path d="M386.1,284.57c-.22-.86-.49-1.71-.78-2.55a.1.1,0,0,0,0-.1c-.19-.48-.39-1-.58-1.43l-.07-.18c0-.09-.08-.18-.11-.27s-.06,0-.05,0,.09.33.14.49a2.76,2.76,0,0,0,.08.27,69.69,69.69,0,0,1,2.21,10.1c0,.11.18.11.17,0A34.22,34.22,0,0,0,386.1,284.57Z" style="fill:#263238"></path><polygon points="424.54 388.47 423.48 401.05 420.23 439.42 385.42 439.42 382.17 401.05 381.11 388.47 424.54 388.47" style="fill:#37474f"></polygon><polygon points="424.54 388.47 423.48 401.05 382.17 401.05 381.11 388.47 424.54 388.47" style="fill:#263238"></polygon><rect x="377.69" y="383.42" width="50.26" height="12.07" style="fill:#37474f"></rect></g><g id="freepik--Floor--inject-7"><polygon points="47.44 439.42 98.08 439.18 148.72 439.09 250 438.92 351.28 439.08 401.92 439.17 452.56 439.42 401.92 439.66 351.28 439.75 250 439.92 148.72 439.75 98.08 439.66 47.44 439.42" style="fill:#263238"></polygon></g><g id="freepik--Device--inject-7"><path d="M334.51,56.57h-169A17.26,17.26,0,0,0,148.36,74V422a17.27,17.27,0,0,0,17.11,17.42h169A17.29,17.29,0,0,0,351.64,422V74A17.28,17.28,0,0,0,334.51,56.57Zm6.43,354.67c0,9.16-6.86,16.57-15.32,16.57H174.39c-8.48,0-15.34-7.41-15.34-16.57V87.18c0-18.66,6.86-19.57,15.34-19.57h30.29c1.76,0,3.2,2,3.2,4.48v1.07C207.88,79,211.06,79,215,79H285c3.93,0,7.09,0,7.09-5.83V72.09c0-2.48,1.41-4.48,3.2-4.48h30.3c8.46,0,15.32,2.48,15.32,19.57Z" style="fill:#263238"></path><path d="M259.55,71.73H240.44a1.18,1.18,0,0,1-1.18-1.18h0a1.18,1.18,0,0,1,1.18-1.18h19.11a1.18,1.18,0,0,1,1.18,1.18h0A1.18,1.18,0,0,1,259.55,71.73Z" style="fill:#fff"></path><path d="M341,87.18V411.24c0,9.16-6.86,16.57-15.32,16.57H174.39c-8.48,0-15.34-7.41-15.34-16.57V87.18c0-18.66,6.86-19.57,15.34-19.57h30.29c1.76,0,3.2,2,3.2,4.48v1.07C207.88,79,211.06,79,215,79H285c3.94,0,7.09,0,7.09-5.83V72.09c0-2.48,1.42-4.48,3.21-4.48h30.3C334.09,67.61,341,70.09,341,87.18Z" style="fill:#fff"></path><polygon points="177.46 99.55 172.08 94.52 177.46 89.48 178.29 90.37 173.87 94.52 178.29 98.67 177.46 99.55" style="fill:#c7c7c7"></polygon><path d="M326.86,91.38a1.06,1.06,0,1,1-1.06-1.06A1.05,1.05,0,0,1,326.86,91.38Z" style="fill:#c7c7c7"></path><path d="M326.86,95.14a1.06,1.06,0,1,1-1.06-1.06A1.05,1.05,0,0,1,326.86,95.14Z" style="fill:#c7c7c7"></path><path d="M326.86,98.9a1.06,1.06,0,1,1-1.06-1.06A1.05,1.05,0,0,1,326.86,98.9Z" style="fill:#c7c7c7"></path><g id="freepik--u5Zjqx--inject-7"><path d="M199.45,74.89l-.29.29-.17.16a4,4,0,0,0-5.64,0l-.16-.17-.29-.29h0l0,0,.37-.33a5.16,5.16,0,0,1,.86-.54,4.14,4.14,0,0,1,1.14-.38,5,5,0,0,1,.56-.08h.5l.38,0a4.72,4.72,0,0,1,1.05.25,4.94,4.94,0,0,1,.7.33,4.48,4.48,0,0,1,.67.47l.31.28Z" style="fill:#c7c7c7"></path><path d="M194.28,76.26l-.47-.46a3.35,3.35,0,0,1,4.72,0l-.47.46a2.68,2.68,0,0,0-3.78,0Z" style="fill:#c7c7c7"></path><path d="M197.6,76.73l-.46.45a1.4,1.4,0,0,0-1-.4,1.36,1.36,0,0,0-1,.41c-.15-.16-.31-.31-.46-.46A2,2,0,0,1,197.6,76.73Z" style="fill:#c7c7c7"></path><path d="M196.59,77.6a.42.42,0,0,1-.42.42.41.41,0,0,1-.41-.42.41.41,0,0,1,.41-.41A.41.41,0,0,1,196.59,77.6Z" style="fill:#c7c7c7"></path></g><path d="M170.91,75.77a1.21,1.21,0,1,1,1.2,1.21A1.2,1.2,0,0,1,170.91,75.77Z" style="fill:#c7c7c7"></path><path d="M174.7,75.77A1.21,1.21,0,1,1,175.91,77,1.21,1.21,0,0,1,174.7,75.77Z" style="fill:#c7c7c7"></path><path d="M178.5,75.77A1.21,1.21,0,1,1,179.71,77,1.21,1.21,0,0,1,178.5,75.77Z" style="fill:#c7c7c7"></path><path d="M182.3,75.77A1.21,1.21,0,1,1,183.5,77,1.2,1.2,0,0,1,182.3,75.77Z" style="fill:#c7c7c7"></path><path d="M186.1,75.77A1.21,1.21,0,1,1,187.3,77,1.2,1.2,0,0,1,186.1,75.77Z" style="fill:#c7c7c7"></path><path d="M327.31,78.41h-9.83V73.85h9.83ZM318,77.9h8.8V74.36H318Z" style="fill:#c7c7c7"></path><rect x="318.3" y="74.63" width="6.33" height="3" style="fill:#c7c7c7"></rect><rect x="327.31" y="74.91" width="0.87" height="2.43" style="fill:#c7c7c7"></rect><polygon points="186.69 408 185.3 408 185.3 414.35 182.72 414.35 182.72 411.11 178.14 411.11 178.14 414.35 175.56 414.35 175.56 408 174.18 408 180.43 401.53 186.69 408" style="fill:#ebebeb"></polygon><rect x="310.75" y="401.53" width="15.08" height="2.15" style="fill:#ebebeb"></rect><rect x="310.75" y="406.86" width="15.08" height="2.15" style="fill:#ebebeb"></rect><rect x="310.75" y="412.19" width="15.08" height="2.15" style="fill:#ebebeb"></rect><polygon points="254.29 407.08 250 411.66 245.71 407.08 246.47 406.38 250 410.14 253.53 406.38 254.29 407.08" style="fill:#ebebeb"></polygon><path d="M250,416.39a7.79,7.79,0,1,1,7.79-7.79A7.81,7.81,0,0,1,250,416.39Zm0-14.55a6.76,6.76,0,1,0,6.76,6.76A6.76,6.76,0,0,0,250,401.84Z" style="fill:#ebebeb"></path><path d="M238.37,380.61a2.6,2.6,0,1,1-2.6-2.6A2.59,2.59,0,0,1,238.37,380.61Z" style="fill:#dbdbdb"></path><path d="M254.22,380.61a3.94,3.94,0,1,1-3.94-3.94A3.94,3.94,0,0,1,254.22,380.61Z" style="fill:#FFC727"></path><path d="M267.39,380.61a2.6,2.6,0,1,1-2.6-2.6A2.59,2.59,0,0,1,267.39,380.61Z" style="fill:#dbdbdb"></path><rect x="214.35" y="308.17" width="70.18" height="22.32" style="fill:#FFC727"></rect><path d="M234,322.46v-6a.55.55,0,0,1,.56-.56.56.56,0,0,1,.57.56v5.47h2.78a.57.57,0,0,1,0,1.14h-3.35A.56.56,0,0,1,234,322.46Z" style="fill:#fff"></path><path d="M245,316.74a3.75,3.75,0,0,1,0,5.18,3.32,3.32,0,0,1-2.44,1.1,3.43,3.43,0,0,1-2.51-1.1,3.8,3.8,0,0,1,0-5.18,3.39,3.39,0,0,1,2.51-1.1A3.29,3.29,0,0,1,245,316.74Zm-.13,2.59a2.64,2.64,0,0,0-.7-1.79,2.2,2.2,0,0,0-1.61-.73,2.23,2.23,0,0,0-1.66.73,2.6,2.6,0,0,0-.7,1.79,2.55,2.55,0,0,0,.7,1.78,2.24,2.24,0,0,0,1.66.74,2.21,2.21,0,0,0,1.61-.74A2.6,2.6,0,0,0,244.83,319.33Z" style="fill:#fff"></path><path d="M247.7,319.34a3.79,3.79,0,0,1,6.12-2.9.58.58,0,1,1-.72.92,2.63,2.63,0,0,0-1.61-.55,2.56,2.56,0,0,0-1.85.75,2.42,2.42,0,0,0,0,3.54,2.56,2.56,0,0,0,1.85.75,2.78,2.78,0,0,0,1.4-.39v-1.4h-1.47a.6.6,0,0,1-.58-.59.58.58,0,0,1,.58-.57h2a.58.58,0,0,1,.6.57v2.27a.86.86,0,0,1,0,.17l0,0h0a.48.48,0,0,1-.2.25,3.78,3.78,0,0,1-6.11-2.88Z" style="fill:#fff"></path><path d="M256.44,316.41a.55.55,0,0,1,.56-.56.57.57,0,0,1,.58.56v6a.58.58,0,0,1-.58.56.55.55,0,0,1-.56-.56Z" style="fill:#fff"></path><path d="M260.62,322.46a.56.56,0,1,1-1.12,0v-6h0a.57.57,0,0,1,.23-.47.58.58,0,0,1,.78.12l3.31,4.58V316.5a.55.55,0,0,1,.55-.55.56.56,0,0,1,.56.55v6a.57.57,0,0,1-.56.56.54.54,0,0,1-.42-.21l-.05-.06-3.28-4.55Z" style="fill:#fff"></path><path d="M267,135.39v7.31h-5.17v-7.31c0-7-5.29-12.61-11.79-12.61s-11.79,5.65-11.79,12.61v18.3H233v-18.3c0-10,7.61-18.07,17-18.07S267,125.43,267,135.39Z" style="fill:#c7c7c7"></path><polygon points="233.04 142.72 238.21 142.93 238.21 153.69 233.04 153.69 233.04 142.72" style="fill:#a6a6a6"></polygon><rect x="226.41" y="147.56" width="47.18" height="42.8" style="fill:#FFC727"></rect><rect x="250" y="147.56" width="23.59" height="42.8" style="opacity:0.1"></rect><path d="M252,170.53l2,9.36h-8.38l2-9.36a4.2,4.2,0,1,1,4.43,0Z" style="fill:#263238"></path><rect x="189.25" y="237.59" width="121.51" height="20.8" style="fill:#fff"></rect><path d="M311.25,258.89H188.75v-21.8h122.5Zm-121.5-1h120.5v-19.8H189.75Z" style="fill:#ebebeb"></path><rect x="200.86" y="243.33" width="1" height="8.89" style="fill:#37474f"></rect><rect x="196.92" y="247.27" width="8.89" height="1" style="fill:#37474f"></rect><rect x="196.92" y="247.27" width="8.89" height="1" transform="translate(-116.21 214.84) rotate(-44.98)" style="fill:#37474f"></rect><rect x="200.86" y="243.33" width="1" height="8.89" transform="translate(-116.23 214.95) rotate(-45)" style="fill:#37474f"></rect><rect x="215.94" y="243.33" width="1" height="8.89" style="fill:#37474f"></rect><rect x="212" y="247.27" width="8.89" height="1" style="fill:#37474f"></rect><rect x="212" y="247.27" width="8.89" height="1" transform="translate(-111.8 225.51) rotate(-44.98)" style="fill:#37474f"></rect><rect x="215.94" y="243.33" width="1" height="8.89" transform="translate(-111.81 225.61) rotate(-45)" style="fill:#37474f"></rect><rect x="231.02" y="243.33" width="1" height="8.89" style="fill:#37474f"></rect><rect x="227.08" y="247.27" width="8.89" height="1" style="fill:#37474f"></rect><rect x="227.08" y="247.27" width="8.89" height="1" transform="translate(-107.39 236.17) rotate(-44.98)" style="fill:#37474f"></rect><rect x="231.02" y="243.33" width="1" height="8.89" transform="translate(-107.39 236.27) rotate(-45)" style="fill:#37474f"></rect><rect x="246.11" y="243.33" width="1" height="8.89" style="fill:#37474f"></rect><rect x="242.16" y="247.27" width="8.89" height="1" style="fill:#37474f"></rect><rect x="242.16" y="247.27" width="8.89" height="1" transform="translate(-102.97 246.83) rotate(-44.98)" style="fill:#37474f"></rect><rect x="246.11" y="243.33" width="1" height="8.89" transform="translate(-102.97 246.95) rotate(-45)" style="fill:#37474f"></rect><rect x="261.19" y="243.33" width="1" height="8.89" style="fill:#37474f"></rect><rect x="257.24" y="247.27" width="8.89" height="1" style="fill:#37474f"></rect><rect x="257.24" y="247.27" width="8.89" height="1" transform="translate(-98.56 257.49) rotate(-44.98)" style="fill:#37474f"></rect><rect x="261.19" y="243.33" width="1" height="8.89" transform="translate(-98.56 257.6) rotate(-45)" style="fill:#37474f"></rect><rect x="276.27" y="243.33" width="1" height="8.89" style="fill:#37474f"></rect><rect x="272.33" y="247.27" width="8.89" height="1" style="fill:#37474f"></rect><rect x="272.33" y="247.27" width="8.89" height="1" transform="translate(-94.15 268.15) rotate(-44.98)" style="fill:#37474f"></rect><rect x="276.27" y="243.33" width="1" height="8.89" transform="translate(-94.14 268.26) rotate(-45)" style="fill:#37474f"></rect><path d="M300.38,251.2a7.43,7.43,0,0,1-5.53-3l-.22-.3.22-.29a6.62,6.62,0,0,1,11,0l.21.29-.21.3A7.42,7.42,0,0,1,300.38,251.2Zm-4.48-3.26a5.56,5.56,0,0,0,9,0,5.56,5.56,0,0,0-9,0Z" style="fill:#ebebeb"></path><circle cx="300.37" cy="247.94" r="2.25" style="fill:#ebebeb"></circle><rect x="294.79" y="247.27" width="11.3" height="1" transform="translate(-87.21 285.02) rotate(-45)" style="fill:#ebebeb"></rect><path d="M217.33,215.93h-1.6v2.81a.72.72,0,0,1-1.44,0v-7.65a.71.71,0,0,1,.72-.71h2.32a2.78,2.78,0,1,1,0,5.55Zm-1.6-1.44h1.6a1.34,1.34,0,1,0,0-2.67h-1.6Z" style="fill:#FFC727"></path><path d="M225.58,217.31h-3.15l-.64,1.69a.74.74,0,0,1-.67.45.69.69,0,0,1-.25,0,.73.73,0,0,1-.43-.93l2.87-7.64a.74.74,0,0,1,.69-.45.71.71,0,0,1,.68.45l2.87,7.64a.73.73,0,0,1-.43.93.6.6,0,0,1-.25,0,.71.71,0,0,1-.66-.45Zm-.53-1.42L224,213.1,223,215.89Z" style="fill:#FFC727"></path><path d="M228.82,217.2a.67.67,0,0,1,1-.09,4.23,4.23,0,0,0,2.48,1,2.78,2.78,0,0,0,1.62-.48,1.16,1.16,0,0,0,.56-.93.71.71,0,0,0-.12-.41,1.3,1.3,0,0,0-.39-.39,5.07,5.07,0,0,0-1.78-.61h0a7,7,0,0,1-1.68-.51,2.76,2.76,0,0,1-1.2-1,1.93,1.93,0,0,1-.3-1.06,2.41,2.41,0,0,1,1-1.9,3.83,3.83,0,0,1,2.24-.68,5.13,5.13,0,0,1,2.83,1,.66.66,0,0,1,.18.92.65.65,0,0,1-.92.2,3.77,3.77,0,0,0-2.09-.83,2.47,2.47,0,0,0-1.45.44,1,1,0,0,0-.49.82.59.59,0,0,0,.09.36,1.26,1.26,0,0,0,.35.34,4.48,4.48,0,0,0,1.62.57h0a8,8,0,0,1,1.79.54,3.07,3.07,0,0,1,1.3,1.08,2.14,2.14,0,0,1,.31,1.1,2.51,2.51,0,0,1-1.12,2,4,4,0,0,1-2.39.74,5.54,5.54,0,0,1-3.32-1.3A.68.68,0,0,1,228.82,217.2Z" style="fill:#FFC727"></path><path d="M237.35,217.2a.66.66,0,0,1,.94-.09,4.23,4.23,0,0,0,2.48,1,2.76,2.76,0,0,0,1.62-.48,1.16,1.16,0,0,0,.56-.93.71.71,0,0,0-.12-.41,1.2,1.2,0,0,0-.39-.39,5,5,0,0,0-1.77-.61h0a6.8,6.8,0,0,1-1.67-.51,2.84,2.84,0,0,1-1.21-1,2,2,0,0,1-.3-1.06,2.41,2.41,0,0,1,1-1.9,3.83,3.83,0,0,1,2.24-.68,5.13,5.13,0,0,1,2.83,1,.66.66,0,0,1,.18.92.65.65,0,0,1-.92.2,3.77,3.77,0,0,0-2.09-.83,2.47,2.47,0,0,0-1.45.44,1,1,0,0,0-.49.82.59.59,0,0,0,.09.36,1.26,1.26,0,0,0,.35.34,4.56,4.56,0,0,0,1.62.57h0a8,8,0,0,1,1.79.54,3,3,0,0,1,1.29,1.08,2,2,0,0,1,.31,1.1,2.5,2.5,0,0,1-1.11,2,4,4,0,0,1-2.4.74,5.54,5.54,0,0,1-3.32-1.3A.69.69,0,0,1,237.35,217.2Z" style="fill:#FFC727"></path><path d="M257.92,211.45,254.74,219a.29.29,0,0,1-.07.12h0s0,.05-.06.08,0,0,0,0l-.09.06h0s-.06.07-.12.08h0l-.11,0h-.31l-.09,0h0a.19.19,0,0,1-.11-.08h0l-.09-.06s0,0,0,0,0-.05-.05-.08h0a.43.43,0,0,1,0-.12l-1.7-4-1.7,4s0,.09-.05.12h0l-.08.08s0,0,0,0a.24.24,0,0,0-.08.06h0l-.1.08h0a.24.24,0,0,0-.1,0h-.32l-.1,0h0a.32.32,0,0,1-.12-.08h0s-.05,0-.09-.06l0,0-.06-.08h0s0-.08-.07-.12l-3.19-7.56a.71.71,0,0,1,1.31-.54l2.54,6,1.68-4a.72.72,0,0,1,.67-.44.76.76,0,0,1,.68.44l1.67,4,2.53-6a.72.72,0,0,1,.94-.38A.71.71,0,0,1,257.92,211.45Z" style="fill:#FFC727"></path><path d="M267,211.5a4.77,4.77,0,0,1,0,6.57,4.25,4.25,0,0,1-3.1,1.38,4.41,4.41,0,0,1-3.18-1.38,4.86,4.86,0,0,1,0-6.57,4.37,4.37,0,0,1,3.18-1.38A4.21,4.21,0,0,1,267,211.5Zm-.17,3.28a3.34,3.34,0,0,0-.88-2.26,2.76,2.76,0,0,0-2.05-.92,2.81,2.81,0,0,0-2.1.92,3.3,3.3,0,0,0-.88,2.26,3.26,3.26,0,0,0,.88,2.26,2.85,2.85,0,0,0,2.1.93,2.81,2.81,0,0,0,2.05-.93A3.31,3.31,0,0,0,266.79,214.78Z" style="fill:#FFC727"></path><path d="M276.83,218.38a.7.7,0,0,1-.45.9.9.9,0,0,1-.29,0h0a.89.89,0,0,1-.5-.14,1.21,1.21,0,0,1-.42-.45,3.55,3.55,0,0,1-.27-1.56,1.09,1.09,0,0,0-.16-.56,1.07,1.07,0,0,0-.39-.37,2.37,2.37,0,0,0-.72-.31h-1.53v2.81a.72.72,0,0,1-.73.71.71.71,0,0,1-.71-.71v-7.65a.7.7,0,0,1,.71-.71h2.32a2.77,2.77,0,0,1,1.77,4.91,2.3,2.3,0,0,1,.45.48,2.47,2.47,0,0,1,.43,1.4,2.8,2.8,0,0,0,.05.77A.66.66,0,0,1,276.83,218.38ZM275,213.16a1.33,1.33,0,0,0-1.34-1.34h-1.59v2.67h1.59A1.34,1.34,0,0,0,275,213.16Z" style="fill:#FFC727"></path><path d="M278.94,218.74v-7.65a.7.7,0,0,1,.71-.71h1.53a4.54,4.54,0,0,1,0,9.07h-1.53A.71.71,0,0,1,278.94,218.74Zm1.44-.73h.8a3.1,3.1,0,0,0,0-6.19h-.8Z" style="fill:#FFC727"></path></g><g id="freepik--Shield--inject-7"><path d="M434.06,100.28s-7.63,61.06-20.17,74.8c-15,16.48-26,14.07-32,22.57h0c-6.08-8.51-17-6.09-32-22.58-12.54-13.74-20.15-74.8-20.15-74.8,33-16,52.2-34,52.2-34v0C382.44,66.84,401.54,84.5,434.06,100.28Z" style="fill:#37474f"></path><path d="M381.85,66.29V197.65h0c-6.08-8.51-17-6.09-32-22.58-12.54-13.74-20.15-74.8-20.15-74.8,33-16,52.2-34,52.2-34Z" style="fill:#455a64"></path><path d="M426,105.2s-6.44,51.58-17,63.19c-12.73,13.94-22,11.89-27.09,19.07-5.13-7.18-14.36-5.13-27.09-19.07-10.58-11.61-17-63.19-17-63.19,27.9-13.55,44.1-28.73,44.1-28.73S398.05,91.65,426,105.2Z" style="fill:#455a64"></path><path d="M337.75,105.2s6.44,51.57,17,63.19c12.71,13.93,21.93,11.9,27.07,19.06v-111C381.36,77,365.22,91.86,337.75,105.2Z" style="fill:#37474f"></path><circle cx="381.85" cy="131.97" r="20.45" transform="translate(18.53 308.66) rotate(-45)" style="fill:#FFC727"></circle><polygon points="379.52 145.25 370.41 135.78 373.79 132.53 378.81 137.75 389.63 121.15 393.56 123.71 379.52 145.25" style="fill:#fff"></polygon></g></svg>